# xmcd
#
# Track frame offsets: 
#        150
#        14019
#        24991
#        41125
#        51020
#        62515
#        71470
#        83403
#        95643
#        109847
#        123529
#        135218
#        146181
#
# Disc length: 2142 seconds
#
# Revision: 0
# Processed by: cddbd v1.5.2PL0 Copyright (c) Steve Scherf et al.
# Submitted via: ExactAudioCopy v0.95b4
#
DISCID=ae085c0d
DTITLE=The GrassCats - Desperate Times
DYEAR=2004
DGENRE=Bluegrass
TTITLE0=Your Only Friend
TTITLE1=Weary Lonesome Broken Hearted Fool
TTITLE2=Desperate Times
TTITLE3=It doesnt Matter Anymore
TTITLE4=you Aint Seen Nothing Yet
TTITLE5=Down the Road I Go
TTITLE6=I Know a Heartache
TTITLE7=I Bought the Shoes that Just Walked Out on Me
TTITLE8=I Know Its Not Me
TTITLE9=Teardrops in My Eyes
TTITLE10=More Pretty Girls than One
TTITLE11=Somebody New
TTITLE12=Searching for a Rainbow
EXTD=
EXTT0=
EXTT1=
EXTT2=
EXTT3=
EXTT4=
EXTT5=
EXTT6=
EXTT7=
EXTT8=
EXTT9=
EXTT10=
EXTT11=
EXTT12=
PLAYORDER=
